<?xml version="1.0" encoding="utf-8"?>
<!-- Uploaded to: SVG Repo, www.svgrepo.com, Generator: SVG Repo Mixer Tools -->
<svg fill="#000000" width="800px" height="800px" viewBox="0 0 32 32" version="1.1" xmlns="http://www.w3.org/2000/svg">
<title>dashboard</title>
<path d="M3.281 25.344h15.813c0.281 0 0.563-0.125 0.719-0.344 0.844-0.938 1.469-2.125 1.906-3.344 0.438-1.25 0.688-2.563 0.688-3.813 0-3.063-1.25-5.844-3.281-7.906-2.063-2.063-4.844-3.281-7.938-3.281s-5.875 1.219-7.938 3.281c-2.031 2.063-3.25 4.813-3.25 7.906 0 1.25 0.25 2.563 0.688 3.813 0.438 1.219 1.031 2.406 1.906 3.344 0.156 0.219 0.375 0.344 0.688 0.344zM9.781 9.938c0-0.813 0.625-1.406 1.406-1.406s1.406 0.594 1.406 1.406c0 0.781-0.625 1.375-1.406 1.375s-1.406-0.594-1.406-1.375zM4.188 12.25c0-0.781 0.625-1.375 1.406-1.375s1.406 0.594 1.406 1.375-0.625 1.406-1.406 1.406-1.406-0.625-1.406-1.406zM15.406 12.25c0-0.781 0.625-1.375 1.406-1.375 0.813 0 1.406 0.594 1.406 1.375s-0.594 1.375-1.406 1.375c-0.781 0-1.406-0.594-1.406-1.375zM11.094 19.281l1.625-5.813c0.094-0.281 0.344-0.5 0.688-0.5s0.688 0.313 0.688 0.656c0 0.063-0.063 0.219-0.125 0.5-0.094 0.313-0.156 0.688-0.281 1.063-0.094 0.406-0.219 0.875-0.344 1.313-0.281 0.969-0.563 1.875-0.719 2.5-0.094 0.313-0.156 0.594-0.188 0.688 0.625 0.438 1.094 1.125 1.094 1.906 0 1.313-1.031 2.344-2.344 2.344s-2.313-1.031-2.313-2.344c0-0.594 0.219-1.188 0.625-1.594s1-0.688 1.594-0.719zM1.875 17.844c0-0.781 0.594-1.375 1.375-1.375s1.438 0.594 1.438 1.375-0.656 1.406-1.438 1.406-1.375-0.625-1.375-1.406zM17.719 17.844c0-0.781 0.625-1.375 1.406-1.375s1.375 0.594 1.375 1.375-0.594 1.406-1.375 1.406-1.406-0.625-1.406-1.406z"></path>
</svg>